<svg xmlns="http://www.w3.org/2000/svg" xmlns:xlink="http://www.w3.org/1999/xlink" version="1.1" id="circle-puzzle" x="0" y="0" viewBox="0 0 100 100" enable-background="new 0 0 100 100" xml:space="preserve">
  <circle fill="rgba(255,255,255,0.5)" cx="50" cy="50" r="50"/>
  <path fill="black" d="M70.6 17.7c-4.5 1.3-4 5.9-5.6 7.5 -1.5 1.5-2.3 1.9-5-0.8l-10-10 -9.8 9.8c-2.7 2.7-2.3 3.6-0.8 5 1.6 1.6 6.2 1.1 7.5 5.6 0.7 2.5-0.8 5.8-3.3 8.2 -2.4 2.5-5.8 4-8.2 3.3 -4.5-1.3-4-5.9-5.6-7.5 -1.5-1.5-2.3-1.9-5 0.8L14.4 50l10 10c2.7 2.7 2.3 3.6 0.8 5 -1.6 1.6-6.2 1.1-7.5 5.6 -0.7 2.5 0.8 5.8 3.3 8.2 2.4 2.5 5.8 4 8.2 3.3 4.5-1.3 4-5.9 5.6-7.5 1.5-1.5 2.3-1.9 5 0.8L50 85.6l10.4-10.4c2.7-2.7 2.3-3.6 0.8-5 -1.6-1.6-6.2-1.1-7.5-5.6 -0.7-2.5 0.8-5.8 3.3-8.2 2.4-2.5 5.8-4 8.2-3.3 4.5 1.3 4 5.9 5.6 7.5 1.5 1.5 2.3 1.9 5-0.8l9.8-9.8L75.4 39.8c-2.7-2.7-2.3-3.6-0.8-5 1.6-1.6 6.2-1.1 7.5-5.6 0.7-2.5-0.8-5.8-3.3-8.2C76.4 18.5 73.1 17 70.6 17.7z"/>
</svg>
